<svg width="125" height="37" viewBox="0 0 125 37" fill="none" xmlns="http://www.w3.org/2000/svg">
<path d="M0.515625 36V10.3359L2.37891 9.45703H11.0625C14.5781 9.45703 16.3359 11.2148 16.3359 14.7305V17.6133C16.3359 18.9023 15.9961 19.9277 15.3164 20.6895C17.0508 21.6738 17.918 23.4023 17.918 25.875V29.8477C17.918 33.9492 15.8672 36 11.7656 36H0.515625ZM4.03125 32.8359H11.7656C13.5234 32.8359 14.4023 31.8398 14.4023 29.8477V25.875C14.4023 23.8828 13.5234 22.8867 11.7656 22.8867H4.03125V32.8359ZM4.03125 19.7227H11.0625C12.2344 19.7227 12.8203 19.0195 12.8203 17.6133V14.7305C12.8203 13.3242 12.2344 12.6211 11.0625 12.6211H4.03125V19.7227ZM28.1133 12.6211V23.8711H35.8477C37.6055 23.8711 38.4844 22.875 38.4844 20.8828V15.6094C38.4844 13.6172 37.6055 12.6211 35.8477 12.6211H28.1133ZM24.5977 36.7031V10.3359L26.4609 9.45703H35.8477C39.9492 9.45703 42 11.5078 42 15.6094V20.8828C42 24.7031 40.2246 26.7422 36.6738 27L42.4219 35.2441L39.3281 36.7031H39.1523L32.3848 27.0352H28.1133V35.1211L24.7734 36.7031H24.5977ZM49.7461 36.9375V8.8125C49.7461 3.34375 52.4805 0.609375 57.9492 0.609375H65.2148C70.6836 0.609375 73.418 3.34375 73.418 8.8125V34.8281L68.9648 36.9375H68.7305V20.4375H54.4336V34.8281L49.9805 36.9375H49.7461ZM54.4336 16.1719H68.7305V8.8125C68.7305 6.15625 67.5586 4.82812 65.2148 4.82812H57.9492C55.6055 4.82812 54.4336 6.15625 54.4336 8.8125V16.1719ZM87.7734 36C83.6719 36 81.6211 33.9492 81.6211 29.8477V10.3359L84.9609 8.75391H85.1367V29.8477C85.1367 31.8398 86.0156 32.8359 87.7734 32.8359H93.2227C94.9805 32.8359 95.8594 31.8398 95.8594 29.8477V10.3359L99.1992 8.75391H99.375V29.8477C99.375 33.9492 97.3242 36 93.2227 36H87.7734ZM106.406 36.7031V15.6094C106.406 11.5078 108.457 9.45703 112.559 9.45703H118.008C122.109 9.45703 124.16 11.5078 124.16 15.6094V35.1211L120.82 36.7031H120.645V15.6094C120.645 13.6172 119.766 12.6211 118.008 12.6211H112.559C110.801 12.6211 109.922 13.6172 109.922 15.6094V35.1211L106.582 36.7031H106.406Z" fill="white" fill-opacity="0.85"/>
</svg>
